<svg xmlns="http://www.w3.org/2000/svg" width="1920" height="102.482" viewBox="0 0 1920 102.482">
  <path id="Subtraction_1" data-name="Subtraction 1" d="M1920,537.145H0V464.762c.12.032,12.935,3.488,36.537,8.676,21.605,4.749,56.755,11.916,101.513,19.088,50.3,8.06,102.232,14.482,154.347,19.088,30.942,2.734,62.3,4.851,93.191,6.291,33.982,1.583,68.248,2.386,101.846,2.386,18.319,0,36.81-.239,54.957-.71,34.492-.9,67.782-2.642,101.772-5.339,30.318-2.405,60.527-5.521,92.352-9.522,26.558-3.34,54.781-7.378,86.282-12.347,28.089-4.43,56.241-9.192,83.466-13.8l.094-.016c63.524-10.744,129.209-21.854,201.589-30.108,39-4.448,76.634-7.715,115.058-9.99,20.835-1.233,42.157-2.177,63.371-2.805,22.269-.66,45.191-.994,68.132-.994,41.908,0,84.035.923,125.211,2.743,37.431,1.654,74.92,4.087,111.427,7.231,61.481,5.295,121.339,12.678,177.913,21.944,22.229,3.641,43.995,7.584,64.691,11.72,16.566,3.31,32.486,6.75,47.32,10.224,25.4,5.948,38.8,9.935,38.932,9.975v38.645Z" transform="translate(0 -434.663)" fill="#fff"/>
</svg>
